<svg width="14" height="17" viewBox="0 0 14 17" fill="none" xmlns="http://www.w3.org/2000/svg">
<path d="M11.3343 0.615234H2.25625C1.01016 0.615234 0 1.79326 0 3.24643V13.4369C0 14.89 1.01016 16.0681 2.25625 16.0681H11.3343C12.5804 16.0681 13.5906 14.89 13.5906 13.4369V3.24643C13.5906 1.79326 12.5804 0.615234 11.3343 0.615234Z" fill="url(#paint0_linear_108_1266)"/>
<path d="M7.14437 4.67999L5.44858 7.94409L7.26286 11.4101C7.27454 11.4344 7.27778 11.4629 7.272 11.4899C7.26918 11.5014 7.26313 11.5042 7.25384 11.5047L7.24354 11.5045L7.23101 11.5041C7.22422 11.5041 7.21662 11.5045 7.20818 11.5061H5.90009L5.8744 11.5056C5.8039 11.5034 5.75309 11.4917 5.72214 11.4314C5.6011 11.1564 5.47953 10.8817 5.35742 10.6074C5.2482 10.3627 5.13599 10.1199 5.02085 9.87891L4.96999 9.7728C4.83226 9.48735 4.69702 9.20027 4.56429 8.91163H4.55516C4.43258 9.19726 4.30644 9.4808 4.1768 9.76215C4.04604 10.0457 3.91688 10.3275 3.78931 10.6074C3.66166 10.8875 3.53098 11.1658 3.3973 11.442C3.3758 11.4984 3.34007 11.5101 3.29033 11.512L3.26963 11.5124H2.02062L2.01521 11.5126L1.99737 11.5145C1.98744 11.5151 1.9815 11.5127 1.97958 11.4952C1.97616 11.4693 1.98103 11.4428 1.99328 11.4208L3.75284 8.05039L2.03883 4.66946C2.02062 4.64123 2.0176 4.6182 2.0297 4.60037C2.03643 4.59129 2.04488 4.58416 2.05437 4.57954C2.06387 4.57491 2.07416 4.57293 2.08443 4.57375H3.36991C3.39794 4.57196 3.42597 4.57741 3.45198 4.58972C3.47375 4.60415 3.49249 4.62415 3.50667 4.64823C3.61608 4.93178 3.73765 5.21533 3.87138 5.49875C4.00407 5.78039 4.13931 6.06039 4.27708 6.33869C4.41274 6.61269 4.53896 6.89289 4.65544 7.17863H4.66457C4.78395 6.89296 4.90704 6.60942 5.0338 6.32811C5.15829 6.05168 5.28597 5.77339 5.41667 5.49343C5.54572 5.21706 5.67184 4.93886 5.79503 4.65888C5.80204 4.63263 5.81457 4.60885 5.8315 4.58972C5.85402 4.57643 5.87932 4.57089 5.90444 4.57375H7.09877C7.10975 4.57056 7.12132 4.57161 7.13174 4.57675C7.14217 4.58189 7.15088 4.59083 7.15657 4.60224C7.16225 4.61365 7.16461 4.62691 7.16328 4.64001C7.16195 4.65312 7.15701 4.66536 7.1492 4.67491L7.14442 4.68011L7.14437 4.67999ZM9.82373 11.6432L9.76087 11.644C9.34123 11.6515 8.92544 11.5498 8.54372 11.3464C8.18813 11.1544 7.89088 10.8412 7.69129 10.4479C7.49003 10.0581 7.38672 9.57239 7.38152 8.99087L7.3813 8.94351C7.37789 8.45554 7.48483 7.97513 7.69134 7.55071C7.89802 7.13063 8.19932 6.78452 8.56262 6.54987L8.59389 6.53006C8.98887 6.27486 9.46602 6.14726 10.0253 6.14726L10.0497 6.14757L10.0776 6.14863L10.1089 6.15024L10.1437 6.15259L10.2022 6.15742L10.2685 6.16361L10.317 6.16856V4.07401C10.317 4.02448 10.3352 3.99959 10.3717 3.99959H11.5204C11.5279 3.99835 11.5354 3.99914 11.5426 4.00191C11.5497 4.00467 11.5561 4.00934 11.5614 4.01552C11.5668 4.02171 11.5708 4.02926 11.5731 4.03756C11.5755 4.04587 11.5762 4.0547 11.5751 4.06336V10.347C11.5751 10.4525 11.5786 10.5661 11.5856 10.6877L11.6026 10.9635L11.6116 11.1231C11.6128 11.1452 11.6081 11.1671 11.5984 11.1861C11.5886 11.2051 11.5741 11.2202 11.5569 11.2294C11.2605 11.3735 10.9519 11.4805 10.6361 11.5483C10.368 11.606 10.0963 11.6378 9.82373 11.6432ZM10.317 10.3257V7.42311C10.2677 7.40756 10.2174 7.39689 10.1666 7.39123C10.1045 7.38394 10.0421 7.38039 9.97965 7.38058C9.75842 7.37803 9.53978 7.43631 9.34148 7.55071C9.14832 7.66268 8.98339 7.83121 8.86283 8.0398C8.74248 8.2451 8.68021 8.51317 8.67612 8.84402L8.67591 8.87974C8.67148 9.11149 8.70393 9.34219 8.77163 9.56014C8.82674 9.73578 8.91386 9.8954 9.02698 10.028C9.13524 10.15 9.26631 10.2409 9.40986 10.2938C9.56149 10.351 9.71998 10.3798 9.87937 10.3789C9.96441 10.3789 10.0434 10.3753 10.1164 10.3682C10.1746 10.3631 10.2323 10.3519 10.2888 10.3348L10.317 10.3257Z" fill="black"/>
<defs>
<linearGradient id="paint0_linear_108_1266" x1="6.79528" y1="0.615234" x2="6.79528" y2="16.0681" gradientUnits="userSpaceOnUse">
<stop stop-color="#693B93" stop-opacity="0.53"/>
<stop offset="1" stop-color="#693B93"/>
</linearGradient>
</defs>
</svg>
